<?xml version="1.0" encoding="UTF-8" standalone="no"?>
<svg
   width="800px"
   height="800px"
   viewBox="0 -0.5 25 25"
   fill="none"
   version="1.1"
   id="svg1"
   sodipodi:docname="call_a.svg"
   inkscape:version="1.4.2 (f4327f4, 2025-05-13)"
   xmlns:inkscape="http://www.inkscape.org/namespaces/inkscape"
   xmlns:sodipodi="http://sodipodi.sourceforge.net/DTD/sodipodi-0.dtd"
   xmlns="http://www.w3.org/2000/svg"
   xmlns:svg="http://www.w3.org/2000/svg">
  <defs
     id="defs1" />
  <sodipodi:namedview
     id="namedview1"
     pagecolor="#ffffff"
     bordercolor="#000000"
     borderopacity="0.25"
     inkscape:showpageshadow="2"
     inkscape:pageopacity="0.0"
     inkscape:pagecheckerboard="0"
     inkscape:deskcolor="#d1d1d1"
     inkscape:zoom="1.00875"
     inkscape:cx="400"
     inkscape:cy="400"
     inkscape:window-width="1920"
     inkscape:window-height="1009"
     inkscape:window-x="1912"
     inkscape:window-y="-8"
     inkscape:window-maximized="1"
     inkscape:current-layer="svg1" />
  <path
     fill-rule="evenodd"
     clip-rule="evenodd"
     d="M 2.6663262,2.958264 C 4.0772286,1.4720067 4.5758543,1.0551492 5.177091,0.86115012 5.593179,0.75212585 6.0295486,0.74606538 6.4485064,0.84351384 7.000041,1.0038436 7.1459411,1.1256943 8.9544133,2.9278014 10.543282,4.5102566 10.702008,4.6818095 10.854321,4.991246 c 0.29132,0.5431653 0.336853,1.1848213 0.125058,1.7636279 -0.16033,0.440907 -0.387998,0.7327072 -1.3515805,1.699496 L 8.9993056,9.0845462 c -0.1649794,0.167705 -0.2037792,0.4223087 -0.096198,0.6316995 1.3964724,2.3821803 3.3775074,4.3688273 5.7558404,5.7718733 0.273843,0.146541 0.611017,0.09924 0.833715,-0.117041 l 0.604443,-0.594824 c 0.373569,-0.383027 0.769263,-0.74377 1.184838,-1.080622 0.652863,-0.400825 1.466216,-0.436579 2.151626,-0.09459 0.335089,0.16033 0.445716,0.259734 2.084287,1.895098 1.689876,1.685067 1.737975,1.737975 1.923958,2.12437 0.35,0.639556 0.346312,1.41427 -0.0096,2.050619 -0.181173,0.359138 -0.2918,0.489005 -1.242556,1.460604 -0.573981,0.586807 -1.114292,1.122309 -1.20087,1.20087 -0.784334,0.649336 -1.790564,0.967911 -2.805772,0.888227 -1.85726,-0.169308 -3.655039,-0.743449 -5.266834,-1.681859 C 9.3459386,19.647234 6.3064542,16.891165 4.0756253,13.522475 3.5897297,12.817345 3.1577531,12.076621 2.783367,11.306717 1.779029,9.5852562 1.2603941,7.6237653 1.28268,5.6309619 1.3593497,4.5884334 1.8593061,3.6227028 2.6663262,2.958264 Z"
     stroke="#bbbbbb"
     stroke-width="2.40495"
     stroke-linecap="round"
     stroke-linejoin="round"
     id="path1" />
</svg>
