<?xml version="1.0" encoding="UTF-8" standalone="no"?>
<svg
   width="800px"
   height="800px"
   viewBox="0 0 24 24"
   fill="none"
   version="1.1"
   id="svg2"
   sodipodi:docname="camera-5_a.svg"
   inkscape:version="1.4.2 (f4327f4, 2025-05-13)"
   xmlns:inkscape="http://www.inkscape.org/namespaces/inkscape"
   xmlns:sodipodi="http://sodipodi.sourceforge.net/DTD/sodipodi-0.dtd"
   xmlns="http://www.w3.org/2000/svg"
   xmlns:svg="http://www.w3.org/2000/svg">
  <defs
     id="defs2" />
  <sodipodi:namedview
     id="namedview2"
     pagecolor="#ffffff"
     bordercolor="#000000"
     borderopacity="0.25"
     inkscape:showpageshadow="2"
     inkscape:pageopacity="0.0"
     inkscape:pagecheckerboard="0"
     inkscape:deskcolor="#d1d1d1"
     inkscape:zoom="1.00875"
     inkscape:cx="400"
     inkscape:cy="188.84758"
     inkscape:window-width="1920"
     inkscape:window-height="1009"
     inkscape:window-x="1912"
     inkscape:window-y="-8"
     inkscape:window-maximized="1"
     inkscape:current-layer="svg2" />
  <path
     fill-rule="evenodd"
     clip-rule="evenodd"
     d="m 11.886617,16.888253 c -1.636997,0 -2.9639654,-1.326967 -2.9639654,-2.963965 0,-1.63685 1.3269684,-2.963965 2.9639654,-2.963965 1.636998,0 2.963966,1.327115 2.963966,2.963965 0,1.636998 -1.326968,2.963965 -2.963966,2.963965 z"
     stroke="#bbbbbb"
     stroke-width="2.22297"
     stroke-linecap="round"
     stroke-linejoin="round"
     id="path1" />
  <path
     d="m 8.1816603,3.9209349 c -0.613852,0 -1.1114871,0.497635 -1.1114871,1.111487 0,0.613852 0.4976351,1.1114871 1.1114871,1.1114871 z M 15.591574,6.143909 c 0.613837,0 1.111487,-0.4976351 1.111487,-1.1114871 0,-0.613852 -0.49765,-1.111487 -1.111487,-1.111487 z m -7.4099137,0 c 0.6138521,0 1.1114871,-0.4976351 1.1114871,-1.1114871 0,-0.613852 -0.497635,-1.111487 -1.1114871,-1.111487 z M 15.591574,3.9209349 c -0.613837,0 -1.111487,0.497635 -1.111487,1.111487 0,0.613852 0.49765,1.1114871 1.111487,1.1114871 z m -8.5214008,1.111487 c 0,0.613852 0.4976351,1.1114871 1.1114871,1.1114871 0.6138521,0 1.1114871,-0.4976351 1.1114871,-1.1114871 z M 8.1816603,2.8094478 7.0704104,2.7868328 c -1.63e-4,0.00752 -2.372e-4,0.015072 -2.372e-4,0.022616 z M 8.646751,1.7485409 9.4163595,2.5504713 v 0 z m 1.0791353,-0.4210758 -0.023119,1.11125 c 0.00771,1.629e-4 0.015412,2.371e-4 0.023119,2.371e-4 z m 4.3214617,0 v 1.1114871 c 0.0077,0 0.01542,-7.42e-5 0.02312,-2.371e-4 z m 1.07918,0.4210758 -0.769594,0.8019304 v 0 z m 0.465046,1.0609069 h 1.111487 c 0,-0.00754 -1.49e-4,-0.015086 -2.97e-4,-0.022616 z m -1.111487,2.2229741 c 0,0.613852 0.49765,1.1114871 1.111487,1.1114871 0.613837,0 1.111487,-0.4976351 1.111487,-1.1114871 z M 8.1816603,6.143909 H 15.591574 V 3.9209349 H 8.1816603 Z m 0,-2.2229741 c -3.8877593,0 -7.0394178,3.1516586 -7.0394178,7.0393881 h 2.222974 c 0,-2.6600107 2.1563886,-4.816414 4.8164438,-4.816414 z M 1.1422425,10.960323 v 5.92793 h 2.222974 v -5.92793 z m 0,5.92793 c 0,3.887835 3.1516585,7.039419 7.0394178,7.039419 v -2.222975 c -2.6600552,0 -4.8164438,-2.156432 -4.8164438,-4.816444 z m 7.0394178,7.039419 H 15.591574 V 21.704697 H 8.1816603 Z m 7.4099137,0 c 3.887833,0 7.039418,-3.151584 7.039418,-7.039419 h -2.222974 c 0,2.660012 -2.156434,4.816444 -4.816444,4.816444 z m 7.039418,-7.039419 v -5.92793 h -2.222974 v 5.92793 z m 0,-5.92793 c 0,-3.8877295 -3.151585,-7.0393881 -7.039418,-7.0393881 V 6.143909 c 2.66001,0 4.816444,2.1564033 4.816444,4.816414 z M 9.2931474,5.0324219 V 2.8094478 H 7.0701732 V 5.0324219 Z M 9.2929103,2.832063 C 9.2950892,2.7255528 9.3394894,2.6242444 9.4163595,2.5504713 L 7.8771426,0.94661039 C 7.37478,1.4287143 7.0845781,2.0907012 7.0704104,2.7868328 Z M 9.4163595,2.5504713 C 9.4932299,2.4766982 9.5962721,2.4365069 9.7027673,2.4387151 L 9.7490052,0.21621527 C 9.0528439,0.20175111 8.3795051,0.46449182 7.8771426,0.94661039 Z M 9.7258863,2.4389522 H 14.047348 V 0.21597814 H 9.7258863 Z m 4.3445807,-2.371e-4 c 0.106553,-0.00221 0.209552,0.037982 0.286467,0.1117562 L 15.896121,0.94661039 C 15.393729,0.46449182 14.720315,0.20175111 14.024229,0.21621527 Z m 0.286467,0.1117562 c 0.07677,0.073773 0.121226,0.1750815 0.123449,0.2815917 L 16.702764,2.786834 C 16.688685,2.0906863 16.398512,1.4287143 15.896121,0.94661039 Z m 0.123153,0.2589765 v 2.2229741 h 2.222974 V 2.8094478 Z"
     fill="#bbbbbb"
     id="path2"
     style="stroke-width:1.48198" />
</svg>
