<?xml version="1.0" encoding="UTF-8" standalone="no"?>
<svg
   fill="#000000"
   width="40px"
   height="40px"
   viewBox="0 0 32 32"
   version="1.1"
   id="svg1"
   sodipodi:docname="cancel_a.svg"
   inkscape:version="1.4.2 (f4327f4, 2025-05-13)"
   xmlns:inkscape="http://www.inkscape.org/namespaces/inkscape"
   xmlns:sodipodi="http://sodipodi.sourceforge.net/DTD/sodipodi-0.dtd"
   xmlns="http://www.w3.org/2000/svg"
   xmlns:svg="http://www.w3.org/2000/svg"
   xmlns:rdf="http://www.w3.org/1999/02/22-rdf-syntax-ns#"
   xmlns:cc="http://creativecommons.org/ns#"
   xmlns:dc="http://purl.org/dc/elements/1.1/">
  <defs
     id="defs1" />
  <sodipodi:namedview
     id="namedview1"
     pagecolor="#ffffff"
     bordercolor="#000000"
     borderopacity="0.25"
     inkscape:showpageshadow="2"
     inkscape:pageopacity="0.0"
     inkscape:pagecheckerboard="0"
     inkscape:deskcolor="#d1d1d1"
     inkscape:zoom="20.175"
     inkscape:cx="20"
     inkscape:cy="20"
     inkscape:window-width="1920"
     inkscape:window-height="1009"
     inkscape:window-x="1912"
     inkscape:window-y="-8"
     inkscape:window-maximized="1"
     inkscape:current-layer="svg1" />
  <title
     id="title1">cancel</title>
  <path
     d="M 16,31.736059 C 7.3088533,31.736059 0.26394052,24.691147 0.26394052,16 0.26394052,7.3088533 7.3088533,0.26394052 16,0.26394052 24.691147,0.26394052 31.736059,7.3088533 31.736059,16 31.736059,24.691147 24.691147,31.736059 16,31.736059 Z m 7.215589,-20.324936 c 0.295353,-0.295354 0.295353,-0.775909 0,-1.071263 L 21.60809,8.7335719 c -0.295354,-0.2953537 -0.775909,-0.2953537 -1.071263,0 L 15.984264,13.286135 11.431701,8.7335719 c -0.295354,-0.2953537 -0.775909,-0.2953537 -1.071263,0 L 8.7529394,10.33986 c -0.2953538,0.295354 -0.2953538,0.775909 0,1.071263 l 4.5537736,4.553773 -4.5537736,4.551353 c -0.2953538,0.295354 -0.2953538,0.775909 0,1.071263 l 1.6074986,1.607499 c 0.295354,0.295353 0.775909,0.295353 1.071263,0 l 4.552563,-4.553774 4.552563,4.553774 c 0.295354,0.295353 0.775909,0.295353 1.071263,0 l 1.607499,-1.607499 c 0.295353,-0.295354 0.295353,-0.775909 0,-1.071263 l -4.553774,-4.551353 z"
     id="path1"
     style="stroke-width:1.21047" />
  <metadata
     id="metadata1">
    <rdf:RDF>
      <cc:Work
         rdf:about="">
        <dc:title>cancel</dc:title>
      </cc:Work>
    </rdf:RDF>
  </metadata>
</svg>
