<?xml version="1.0" encoding="UTF-8" standalone="no"?>
<svg
   width="100px"
   height="100px"
   viewBox="0 0 40 40"
   fill="#68da6d"
   version="1.1"
   id="svg1"
   sodipodi:docname="pause.svg"
   inkscape:version="1.4 (86a8ad7, 2024-10-11)"
   xmlns:inkscape="http://www.inkscape.org/namespaces/inkscape"
   xmlns:sodipodi="http://sodipodi.sourceforge.net/DTD/sodipodi-0.dtd"
   xmlns="http://www.w3.org/2000/svg"
   xmlns:svg="http://www.w3.org/2000/svg">
  <path
     d="m 8.0291825,0.03491877 c -4.4167966,0 -7.99742564,3.58056343 -7.99742564,7.99742563 0,4.4168566 3.58062904,7.9974256 7.99742564,7.9974256 4.4167965,0 7.9974255,-3.580569 7.9974255,-7.9974256 0,-4.4168622 -3.580629,-7.99742563 -7.9974255,-7.99742563 z M 7.0295042,10.031702 c 0,0.276033 -0.2238031,0.499837 -0.4998389,0.499837 H 5.5299869 c -0.2760363,0 -0.4998388,-0.223804 -0.4998388,-0.499837 V 6.0329868 c 0,-0.2760329 0.2238025,-0.4998369 0.4998388,-0.4998369 h 0.9996784 c 0.2760358,0 0.4998389,0.223804 0.4998389,0.4998369 z m 3.9987118,0 c 0,0.276033 -0.223803,0.499837 -0.499839,0.499837 H 9.5286998 c -0.2760365,0 -0.4998395,-0.223804 -0.4998395,-0.499837 V 6.0329868 c 0,-0.2760329 0.223803,-0.4998369 0.4998395,-0.4998369 h 0.9996772 c 0.276036,0 0.499839,0.223804 0.499839,0.4998369 z"
     id="path1-2"
     style="stroke-width:0.03124;fill:#68da6d;fill-opacity:1" />
</svg>
