<?xml version="1.0" encoding="UTF-8" standalone="no"?>
<svg
   width="800px"
   height="800px"
   viewBox="0 -0.5 25 25"
   fill="none"
   version="1.1"
   id="svg1"
   sodipodi:docname="send-2_a.svg"
   inkscape:version="1.4.2 (f4327f4, 2025-05-13)"
   xmlns:inkscape="http://www.inkscape.org/namespaces/inkscape"
   xmlns:sodipodi="http://sodipodi.sourceforge.net/DTD/sodipodi-0.dtd"
   xmlns="http://www.w3.org/2000/svg"
   xmlns:svg="http://www.w3.org/2000/svg">
  <defs
     id="defs1" />
  <sodipodi:namedview
     id="namedview1"
     pagecolor="#ffffff"
     bordercolor="#000000"
     borderopacity="0.25"
     inkscape:showpageshadow="2"
     inkscape:pageopacity="0.0"
     inkscape:pagecheckerboard="0"
     inkscape:deskcolor="#d1d1d1"
     inkscape:zoom="1.00875"
     inkscape:cx="400"
     inkscape:cy="400"
     inkscape:window-width="1920"
     inkscape:window-height="1009"
     inkscape:window-x="1912"
     inkscape:window-y="-8"
     inkscape:window-maximized="1"
     inkscape:current-layer="svg1" />
  <path
     fill-rule="evenodd"
     clip-rule="evenodd"
     d="M 21.309054,9.571513 4.2809803,0.99170768 C 3.836071,0.73144358 3.2915972,0.7067206 2.8249245,0.92558038 2.3582518,1.14444 2.0291101,1.5788563 1.9447022,2.0873517 c 0.00583,0.1689355 0.046546,0.3348367 0.1195792,0.4872851 l 3.2420902,7.8324362 c 0.1627174,0.52002 0.2512807,1.060517 0.2630742,1.60535 -0.011748,0.544832 -0.1003115,1.085331 -0.2630742,1.60535 l -3.2420902,7.832435 c -0.073033,0.152464 -0.1137497,0.318381 -0.1195792,0.487286 0.085005,0.507763 0.4140878,0.941387 0.8802522,1.159769 0.4661794,0.21853 1.0099357,0.193867 1.4545311,-0.06562 L 21.309054,14.451838 c 0.949608,-0.441098 1.55707,-1.393097 1.55707,-2.440162 0,-1.047065 -0.607462,-1.999065 -1.55707,-2.440163 z"
     stroke="#bbbbbb"
     stroke-width="2.24211"
     stroke-linecap="round"
     stroke-linejoin="round"
     id="path1" />
</svg>
